<svg width="46" height="11" viewBox="0 0 46 11" fill="none" xmlns="http://www.w3.org/2000/svg">
<path d="M5.988 10.888L5.46 7.228L1.38 7.684L0.888 6.616L5.268 5.908L4.968 3.82L2.148 4.096L1.68 3.004L4.788 2.512L4.464 0.256L6.252 0.159999L6.48 2.248L9.168 1.828L9.336 3.4L6.624 3.664L6.84 5.656L10.788 5.02L11.016 6.604L6.996 7.06L7.368 10.54L5.988 10.888ZM17.988 10.888L17.46 7.228L13.38 7.684L12.888 6.616L17.268 5.908L16.968 3.82L14.148 4.096L13.68 3.004L16.788 2.512L16.464 0.256L18.252 0.159999L18.48 2.248L21.168 1.828L21.336 3.4L18.624 3.664L18.84 5.656L22.788 5.02L23.016 6.604L18.996 7.06L19.368 10.54L17.988 10.888ZM33.54 7.276C32.948 6.812 32.404 6.416 31.908 6.088C31.412 5.76 30.932 5.468 30.468 5.212C30.004 4.956 29.524 4.708 29.028 4.468L28.86 10.48L27.396 10.732V0.256L29.148 0.508L29.04 4.132L29.472 3.484C30.008 3.66 30.524 3.832 31.02 4C31.516 4.168 32.04 4.36 32.592 4.576C33.144 4.784 33.76 5.048 34.44 5.368L33.54 7.276ZM40.668 10.156C41.532 9.684 42.192 9.192 42.648 8.68C43.104 8.16 43.416 7.596 43.584 6.988C43.752 6.38 43.836 5.704 43.836 4.96V0.711999L45.636 0.927999L45.516 5.08C45.5 5.752 45.42 6.372 45.276 6.94C45.14 7.508 44.916 8.032 44.604 8.512C44.292 8.984 43.864 9.42 43.32 9.82C42.776 10.212 42.092 10.572 41.268 10.9L40.668 10.156ZM38.616 6.868V0.808L40.416 0.987999L40.164 6.664L38.616 6.868Z" fill="white"/>
</svg>
